<svg xmlns="http://www.w3.org/2000/svg" viewBox="3 3 94 94"><defs><linearGradient id="g" x1="0" y1="0" x2="1" y2="0"><stop offset="0" stop-color="#00ff8f"/><stop offset="1" stop-color="#00a1ff"/></linearGradient></defs><g fill="url(#g)"><g><path d="M95.8,87.3l-7.5-7.5V29.1c0-1.3-1.1-2.4-2.4-2.4H61c-0.8-7.8-3.8-15-8.7-21.2c-0.5-0.7-1.4-1.1-2.3-1.1s-1.8,0.4-2.3,1.1   c-4.9,6.2-7.8,13.5-8.7,21.2H14.1c-1.3,0-2.4,1.1-2.4,2.4v50.7l-7.5,7.5c-0.2,0.2-0.2,0.4-0.1,0.6c1.6,3.6,4.4,6.3,7.8,7.8   c0.1,0,0.1,0,0.2,0h75.7c0.1,0,0.1,0,0.2,0c3.5-1.5,6.2-4.2,7.8-7.8C95.9,87.7,96,87.5,95.8,87.3z M67.9,48.3   c0,0.1,0.1,0.4,0.1,0.6c0,1-0.7,1.9-1.7,2c-0.5,0.1-1.1,0-1.5-0.4c-2-1.5-4.2-2.7-6.6-3.6c1.4-3.4,2.3-7,2.8-10.7   C64.7,39.2,67.1,43.5,67.9,48.3z M48.6,6c0.7-0.9,2.3-1,3,0c1.4,1.8,2.7,3.7,3.7,5.7H44.8C45.9,9.7,47.1,7.8,48.6,6z M44.3,12.7   h11.4c0,0,0.1,0,0.1,0c2.9,5.7,4.5,12,4.5,18.6c0,6.4-1.4,12.5-4.3,18.2c-1.9,0.5-3.7,0.7-5.5,0.7v-9.7c0-0.3-0.2-0.5-0.5-0.5   c-0.3,0-0.5,0.2-0.5,0.5v9.7c-1.8,0-3.6-0.3-5.5-0.7c-2.8-5.7-4.3-11.8-4.3-18.2C39.8,24.7,41.4,18.4,44.3,12.7z M54.7,50.7v3.7   h-9.2v-3.7c1.6,0.3,3.1,0.4,4.6,0.4C51.5,51.2,53.1,51,54.7,50.7z M39.1,36.1c0.4,3.7,1.4,7.3,2.8,10.8c-0.8,0.3-1.8,0.7-2.5,1   c-1.5,0.7-2.8,1.6-4.1,2.5c-0.4,0.3-1,0.5-1.5,0.4c-1-0.2-1.7-1-1.7-2c0-0.2,0-0.4,0.1-0.6C32.9,43.4,35.4,39.2,39.1,36.1z    M31.1,48.1c0,0.2-0.1,0.5-0.1,0.7c0,1.5,1,2.8,2.5,3c0.9,0.2,1.7-0.2,2.3-0.6c1.2-1,2.6-1.8,3.9-2.4c0.8-0.4,1.7-0.7,2.5-1   c0.3,0.8,0.7,1.5,1.1,2.3c0.1,0.1,0.2,0.2,0.3,0.3c0.3,0.1,0.5,0.1,0.8,0.2V55c0,0.3,0.2,0.5,0.5,0.5h10.2c0.3,0,0.5-0.2,0.5-0.5   v-4.4c0.3-0.1,0.5-0.1,0.8-0.2c0.1,0,0.3-0.1,0.3-0.3c0.4-0.7,0.7-1.5,1-2.2c0,0,0,0,0,0c2.3,0.8,4.4,1.9,6.3,3.4   c0.5,0.4,1.3,0.7,2.3,0.6c1.5-0.2,2.6-1.5,2.5-3c0-0.2-0.1-0.5-0.1-0.8c-0.8-5.2-3.6-9.8-7.8-13c0.1-1.2,0.2-2.4,0.2-3.6h20.8   c0.8,0,1.5,0.7,1.5,1.5v41.4c0,0.8-0.7,1.5-1.5,1.5H17.9c-0.8,0-1.5-0.7-1.5-1.5V32.9c0-0.8,0.7-1.5,1.5-1.5h20.9   c0,1.2,0.1,2.3,0.2,3.5C34.8,38.1,32,42.8,31.1,48.1z M12.7,29.1c0-0.8,0.6-1.4,1.4-1.4H39c-0.1,0.9-0.1,1.8-0.1,2.8H17.9   c-1.4,0-2.5,1.1-2.5,2.5v41.4c0,1.4,1.1,2.5,2.5,2.5h64.1c1.4,0,2.5-1.1,2.5-2.5V32.9c0-1.4-1.1-2.5-2.5-2.5H61.3   c0-0.9-0.1-1.9-0.1-2.8h24.7c0.8,0,1.4,0.6,1.4,1.4v50.5H12.7V29.1z M12.4,80.6h75.3l6.6,6.6H5.8L12.4,80.6z M87.7,94.7H12.3   c-2.9-1.3-5.4-3.6-6.9-6.6h89.2C93.1,91.1,90.7,93.4,87.7,94.7z"></path><path d="M45.8,65.9c0.3,0,0.5-0.2,0.5-0.5v-7.6c0-0.3-0.2-0.5-0.5-0.5s-0.5,0.2-0.5,0.5v7.6C45.3,65.7,45.5,65.9,45.8,65.9z"></path><path d="M49.9,57.3c-0.3,0-0.5,0.2-0.5,0.5v9.6c0,0.3,0.2,0.5,0.5,0.5s0.5-0.2,0.5-0.5v-9.6C50.4,57.6,50.2,57.3,49.9,57.3z"></path><path d="M54.1,65.9c0.3,0,0.5-0.2,0.5-0.5v-7.6c0-0.3-0.2-0.5-0.5-0.5s-0.5,0.2-0.5,0.5v7.6C53.6,65.7,53.8,65.9,54.1,65.9z"></path><path d="M41.4,67.3c-0.1,0-0.2,0-0.4,0c-0.9-2.9-3.5-5-6.6-5c-2.7,0-5.2,1.6-6.3,4c-0.6-0.2-1.2-0.4-1.9-0.4   c-2.6,0-4.8,2.1-4.8,4.8c0,0.6,0.1,1.1,0.3,1.6c0.1,0.2,0.3,0.4,0.6,0.3c0.2-0.1,0.4-0.4,0.3-0.6c-0.1-0.4-0.2-0.8-0.2-1.3   c0-2.1,1.7-3.8,3.8-3.8c0.5,0,1,0.1,1.5,0.3c-0.1,0.2-0.1,0.4-0.2,0.5c-0.1,0.3,0.1,0.5,0.4,0.6c0.3,0.1,0.5-0.2,0.6-0.4   c0.6-2.7,3-4.7,5.8-4.7c2.6,0,4.8,1.7,5.6,4.1c-1.6,0.4-3,1.6-3.7,3.2c-0.1,0.3,0,0.5,0.3,0.7c0.3,0.1,0.5,0,0.7-0.3   c0.7-1.7,2.3-2.7,4.1-2.7c2.5,0,4.5,2,4.5,4.5c0,0.3,0,0.6-0.1,0.9c-0.1,0.3,0.1,0.5,0.4,0.6c0.3,0.1,0.5-0.2,0.6-0.4   c0.1-0.4,0.1-0.7,0.1-1.1C46.9,69.7,44.4,67.3,41.4,67.3z"></path><path d="M65.7,62.3c-3.1,0-5.7,2-6.6,5c-0.1,0-0.2,0-0.4,0c-3,0-5.5,2.5-5.5,5.5c0,0.4,0,0.7,0.1,1.1c0,0.2,0.3,0.4,0.6,0.4   c0.3,0,0.4-0.3,0.4-0.6c-0.1-0.3-0.1-0.6-0.1-0.9c0-2.5,2-4.5,4.5-4.5c1.8,0,3.4,1.1,4.1,2.7c0.1,0.3,0.4,0.4,0.7,0.3   c0.3-0.1,0.4-0.4,0.3-0.7c-0.7-1.6-2.1-2.8-3.7-3.2c0.8-2.4,3-4.1,5.6-4.1c2.8,0,5.2,2,5.8,4.7c0,0.2,0.3,0.4,0.6,0.4   c0.3,0,0.4-0.3,0.4-0.6c0-0.2-0.1-0.4-0.2-0.5c0.5-0.2,1-0.3,1.5-0.3c2.1,0,3.8,1.7,3.8,3.8c0,0.4-0.1,0.9-0.2,1.3   c-0.1,0.3,0,0.5,0.3,0.6c0.3,0.1,0.6-0.1,0.6-0.3c0.2-0.5,0.3-1.1,0.3-1.6c0-2.6-2.1-4.8-4.8-4.8c-0.6,0-1.3,0.1-1.9,0.4   C70.8,64,68.4,62.3,65.7,62.3z"></path><path d="M50.1,27.8c2.8,0,5.1-2.3,5.1-5.1c0-2.8-2.3-5.1-5.1-5.1s-5.1,2.3-5.1,5.1C44.9,25.5,47.2,27.8,50.1,27.8z M50.1,18.5   c2.3,0,4.1,1.9,4.1,4.1s-1.9,4.1-4.1,4.1s-4.1-1.9-4.1-4.1S47.8,18.5,50.1,18.5z"></path><path d="M50.1,36.3c-0.3,0-0.5,0.2-0.5,0.5v0.9c0,0.3,0.2,0.5,0.5,0.5s0.5-0.2,0.5-0.5v-0.9C50.6,36.6,50.3,36.3,50.1,36.3z"></path></g></g></svg>